dataset
version=1
nRows=25
nColumns=39
inDegrees=no
endheader
time	sternoclavicular_r2	sternoclavicular_r3	unrotscap_r3	unrotscap_r2	acromioclavicular_r2	acromioclavicular_r3	acromioclavicular_r1	unrothum_r1	unrothum_r3	unrothum_r2	elv_angle	shoulder_elv	shoulder1_r2	shoulder_rot	elbow_flexion	pro_sup	deviation	flexion	cmc_abduction	cmc_flexion	mp_flexion	ip_flexion	mcp2_flexion	mcp2_abduction	pm2_flexion	md2_flexion	mcp3_flexion	mcp3_abduction	pm3_flexion	md3_flexion	mcp4_flexion	mcp4_abduction	pm4_flexion	md4_flexion	mcp5_flexion	mcp5_abduction	pm5_flexion	md5_flexion
5.235000	-0.023781	-0.258344	0.096801	0.151073	0.134511	0.085259	-0.062666	-0.079813	0.115657	0.163719	0.163860	0.027437	0.146525	0.146525	1.252383	1.296378	0.000000	0.000000	0.000000	0.000000	0.000000	0.000000	0.000000	0.000000	0.000000	0.000000	0.000000	0.000000	0.000000	0.000000	0.000000	0.000000	0.000000	0.000000	0.000000	0.000000	0.000000	0.000000
5.240000	-0.023621	-0.258429	0.097005	0.150201	0.133678	0.084962	-0.063027	-0.080266	0.114982	0.163035	0.162915	0.027437	0.146525	0.146525	1.254300	1.296196	0.000000	0.000000	0.000000	0.000000	0.000000	0.000000	0.000000	0.000000	0.000000	0.000000	0.000000	0.000000	0.000000	0.000000	0.000000	0.000000	0.000000	0.000000	0.000000	0.000000	0.000000	0.000000
5.245000	-0.023457	-0.258520	0.097218	0.149304	0.132819	0.084667	-0.063396	-0.080713	0.114283	0.162322	0.161939	0.027437	0.146525	0.146525	1.256205	1.296017	0.000000	0.000000	0.000000	0.000000	0.000000	0.000000	0.000000	0.000000	0.000000	0.000000	0.000000	0.000000	0.000000	0.000000	0.000000	0.000000	0.000000	0.000000	0.000000	0.000000	0.000000	0.000000
5.250000	-0.023291	-0.258619	0.097439	0.148381	0.131934	0.084374	-0.063773	-0.081150	0.113562	0.161582	0.160931	0.027437	0.146525	0.146525	1.258093	1.295840	0.000000	0.000000	0.000000	0.000000	0.000000	0.000000	0.000000	0.000000	0.000000	0.000000	0.000000	0.000000	0.000000	0.000000	0.000000	0.000000	0.000000	0.000000	0.000000	0.000000	0.000000	0.000000
5.255000	-0.023122	-0.258724	0.097669	0.147433	0.131023	0.084083	-0.064158	-0.081580	0.112819	0.160815	0.159892	0.027437	0.146525	0.146525	1.259957	1.295666	0.000000	0.000000	0.000000	0.000000	0.000000	0.000000	0.000000	0.000000	0.000000	0.000000	0.000000	0.000000	0.000000	0.000000	0.000000	0.000000	0.000000	0.000000	0.000000	0.000000	0.000000	0.000000
5.260000	-0.022951	-0.258836	0.097908	0.146462	0.130087	0.083797	-0.064550	-0.081999	0.112055	0.160021	0.158824	0.027437	0.146525	0.146525	1.261792	1.295495	0.000000	0.000000	0.000000	0.000000	0.000000	0.000000	0.000000	0.000000	0.000000	0.000000	0.000000	0.000000	0.000000	0.000000	0.000000	0.000000	0.000000	0.000000	0.000000	0.000000	0.000000	0.000000
5.265000	-0.022778	-0.258954	0.098154	0.145468	0.129127	0.083514	-0.064948	-0.082410	0.111272	0.159201	0.157728	0.027437	0.146525	0.146525	1.263593	1.295328	0.000000	0.000000	0.000000	0.000000	0.000000	0.000000	0.000000	0.000000	0.000000	0.000000	0.000000	0.000000	0.000000	0.000000	0.000000	0.000000	0.000000	0.000000	0.000000	0.000000	0.000000	0.000000
5.270000	-0.022603	-0.259078	0.098407	0.144451	0.128143	0.083236	-0.065352	-0.082809	0.110471	0.158355	0.156604	0.027437	0.146525	0.146525	1.265353	1.295165	0.000000	0.000000	0.000000	0.000000	0.000000	0.000000	0.000000	0.000000	0.000000	0.000000	0.000000	0.000000	0.000000	0.000000	0.000000	0.000000	0.000000	0.000000	0.000000	0.000000	0.000000	0.000000
5.275000	-0.022426	-0.259208	0.098668	0.143414	0.127137	0.082964	-0.065761	-0.083198	0.109652	0.157485	0.155453	0.027437	0.146525	0.146525	1.267066	1.295006	0.000000	0.000000	0.000000	0.000000	0.000000	0.000000	0.000000	0.000000	0.000000	0.000000	0.000000	0.000000	0.000000	0.000000	0.000000	0.000000	0.000000	0.000000	0.000000	0.000000	0.000000	0.000000
5.280000	-0.022248	-0.259342	0.098936	0.142357	0.126110	0.082699	-0.066174	-0.083576	0.108817	0.156590	0.154278	0.027437	0.146525	0.146525	1.268726	1.294851	0.000000	0.000000	0.000000	0.000000	0.000000	0.000000	0.000000	0.000000	0.000000	0.000000	0.000000	0.000000	0.000000	0.000000	0.000000	0.000000	0.000000	0.000000	0.000000	0.000000	0.000000	0.000000
5.285000	-0.022069	-0.259481	0.099210	0.141282	0.125062	0.082440	-0.066590	-0.083941	0.107968	0.155672	0.153078	0.027437	0.146525	0.146525	1.270327	1.294702	0.000000	0.000000	0.000000	0.000000	0.000000	0.000000	0.000000	0.000000	0.000000	0.000000	0.000000	0.000000	0.000000	0.000000	0.000000	0.000000	0.000000	0.000000	0.000000	0.000000	0.000000	0.000000
5.290000	-0.021890	-0.259624	0.099491	0.140188	0.123994	0.082189	-0.067009	-0.084295	0.107106	0.154732	0.151855	0.027437	0.146525	0.146525	1.271863	1.294557	0.000000	0.000000	0.000000	0.000000	0.000000	0.000000	0.000000	0.000000	0.000000	0.000000	0.000000	0.000000	0.000000	0.000000	0.000000	0.000000	0.000000	0.000000	0.000000	0.000000	0.000000	0.000000
5.295000	-0.021710	-0.259771	0.099777	0.139078	0.122908	0.081946	-0.067429	-0.084635	0.106232	0.153769	0.150611	0.027437	0.146525	0.146525	1.273327	1.294418	0.000000	0.000000	0.000000	0.000000	0.000000	0.000000	0.000000	0.000000	0.000000	0.000000	0.000000	0.000000	0.000000	0.000000	0.000000	0.000000	0.000000	0.000000	0.000000	0.000000	0.000000	0.000000
5.300000	-0.021530	-0.259922	0.100068	0.137953	0.121805	0.081713	-0.067850	-0.084963	0.105347	0.152787	0.149347	0.027437	0.146525	0.146525	1.274714	1.294284	0.000000	0.000000	0.000000	0.000000	0.000000	0.000000	0.000000	0.000000	0.000000	0.000000	0.000000	0.000000	0.000000	0.000000	0.000000	0.000000	0.000000	0.000000	0.000000	0.000000	0.000000	0.000000
5.305000	-0.021350	-0.260075	0.100364	0.136814	0.120686	0.081489	-0.068270	-0.085277	0.104454	0.151784	0.148064	0.027437	0.146525	0.146525	1.276018	1.294157	0.000000	0.000000	0.000000	0.000000	0.000000	0.000000	0.000000	0.000000	0.000000	0.000000	0.000000	0.000000	0.000000	0.000000	0.000000	0.000000	0.000000	0.000000	0.000000	0.000000	0.000000	0.000000
5.310000	-0.021170	-0.260231	0.100663	0.135662	0.119551	0.081276	-0.068690	-0.085577	0.103553	0.150763	0.146765	0.027437	0.146525	0.146525	1.277231	1.294036	0.000000	0.000000	0.000000	0.000000	0.000000	0.000000	0.000000	0.000000	0.000000	0.000000	0.000000	0.000000	0.000000	0.000000	0.000000	0.000000	0.000000	0.000000	0.000000	0.000000	0.000000	0.000000
5.315000	-0.020991	-0.260388	0.100967	0.134499	0.118403	0.081074	-0.069107	-0.085864	0.102646	0.149725	0.145449	0.027437	0.146525	0.146525	1.278349	1.293922	0.000000	0.000000	0.000000	0.000000	0.000000	0.000000	0.000000	0.000000	0.000000	0.000000	0.000000	0.000000	0.000000	0.000000	0.000000	0.000000	0.000000	0.000000	0.000000	0.000000	0.000000	0.000000
5.320000	-0.020813	-0.260547	0.101274	0.133326	0.117243	0.080883	-0.069522	-0.086136	0.101736	0.148669	0.144120	0.027437	0.146525	0.146525	1.279365	1.293814	0.000000	0.000000	0.000000	0.000000	0.000000	0.000000	0.000000	0.000000	0.000000	0.000000	0.000000	0.000000	0.000000	0.000000	0.000000	0.000000	0.000000	0.000000	0.000000	0.000000	0.000000	0.000000
5.325000	-0.020637	-0.260707	0.101583	0.132144	0.116071	0.080704	-0.069932	-0.086393	0.100823	0.147599	0.142778	0.027437	0.146525	0.146525	1.280274	1.293714	0.000000	0.000000	0.000000	0.000000	0.000000	0.000000	0.000000	0.000000	0.000000	0.000000	0.000000	0.000000	0.000000	0.000000	0.000000	0.000000	0.000000	0.000000	0.000000	0.000000	0.000000	0.000000
5.330000	-0.020462	-0.260868	0.101894	0.130955	0.114890	0.080537	-0.070338	-0.086635	0.099908	0.146514	0.141426	0.027437	0.146525	0.146525	1.281069	1.293621	0.000000	0.000000	0.000000	0.000000	0.000000	0.000000	0.000000	0.000000	0.000000	0.000000	0.000000	0.000000	0.000000	0.000000	0.000000	0.000000	0.000000	0.000000	0.000000	0.000000	0.000000	0.000000
5.335000	-0.020289	-0.261028	0.102207	0.129761	0.113700	0.080384	-0.070738	-0.086862	0.098995	0.145417	0.140065	0.027437	0.146525	0.146525	1.281746	1.293535	0.000000	0.000000	0.000000	0.000000	0.000000	0.000000	0.000000	0.000000	0.000000	0.000000	0.000000	0.000000	0.000000	0.000000	0.000000	0.000000	0.000000	0.000000	0.000000	0.000000	0.000000	0.000000
5.340000	-0.020117	-0.261188	0.102521	0.128562	0.112503	0.080244	-0.071131	-0.087075	0.098084	0.144308	0.138696	0.027437	0.146525	0.146525	1.282298	1.293458	0.000000	0.000000	0.000000	0.000000	0.000000	0.000000	0.000000	0.000000	0.000000	0.000000	0.000000	0.000000	0.000000	0.000000	0.000000	0.000000	0.000000	0.000000	0.000000	0.000000	0.000000	0.000000
5.345000	-0.019948	-0.261347	0.102835	0.127360	0.111301	0.080118	-0.071517	-0.087271	0.097177	0.143188	0.137322	0.027437	0.146525	0.146525	1.282721	1.293389	0.000000	0.000000	0.000000	0.000000	0.000000	0.000000	0.000000	0.000000	0.000000	0.000000	0.000000	0.000000	0.000000	0.000000	0.000000	0.000000	0.000000	0.000000	0.000000	0.000000	0.000000	0.000000
5.350000	-0.019782	-0.261505	0.103149	0.126156	0.110094	0.080007	-0.071895	-0.087453	0.096275	0.142060	0.135944	0.027437	0.146525	0.146525	1.283010	1.293328	0.000000	0.000000	0.000000	0.000000	0.000000	0.000000	0.000000	0.000000	0.000000	0.000000	0.000000	0.000000	0.000000	0.000000	0.000000	0.000000	0.000000	0.000000	0.000000	0.000000	0.000000	0.000000
5.355000	-0.019618	-0.261661	0.103462	0.124953	0.108884	0.079909	-0.072263	-0.087619	0.095381	0.140923	0.134564	0.027437	0.146525	0.146525	1.283160	1.293275	0.000000	0.000000	0.000000	0.000000	0.000000	0.000000	0.000000	0.000000	0.000000	0.000000	0.000000	0.000000	0.000000	0.000000	0.000000	0.000000	0.000000	0.000000	0.000000	0.000000	0.000000	0.000000
